<svg width="102" height="36" viewBox="0 0 102 36" fill="none" xmlns="http://www.w3.org/2000/svg">
<path fill-rule="evenodd" clip-rule="evenodd" d="M72.2414 21.9792C72.2148 22.1276 72.157 22.2688 72.0718 22.3935C71.9866 22.5182 71.8759 22.6236 71.747 22.7029C71.4853 22.8757 71.2537 22.9621 71.021 23.0486C70.5265 23.2226 70.0043 23.3966 69.452 23.5982C68.8996 23.8011 68.3762 24.0039 67.8829 24.1479C67.3017 24.3507 66.7482 24.5247 66.2549 24.7264C65.8774 24.8993 65.4999 25.1021 65.1514 25.3913C64.838 25.675 64.5729 26.0074 64.3663 26.3755C64.1347 26.7799 64.0177 27.272 64.0177 27.8793C64.0177 29.0939 64.3072 29.9904 64.8897 30.5977C65.4698 31.1762 66.5455 31.4943 68.1157 31.4943C69.7136 31.4943 70.8172 31.1762 71.3984 30.5678C71.9797 29.9317 72.2704 29.0651 72.2704 27.9081V21.978H72.2414V21.9792ZM68.1157 9.2835C70.9341 9.2835 72.9964 9.83318 74.3338 10.9314C75.6423 12.0307 76.3093 13.4194 76.3093 15.0684V29.2379C76.3093 29.8164 76.1935 30.4525 75.9897 31.1175C75.7859 31.8123 75.3794 32.4484 74.7704 32.9981C74.159 33.5755 73.316 34.0387 72.2704 34.4444C71.2236 34.82 69.8294 35.0217 68.1435 35.0217C66.4297 35.0217 65.0634 34.82 64.0177 34.4444C62.971 34.0675 62.1292 33.5755 61.5189 32.9981C60.9087 32.4196 60.5011 31.7835 60.2985 31.1175C60.0947 30.4237 59.9777 29.7876 59.9777 29.2391V26.9828C59.9777 25.7682 60.2985 24.6688 60.9087 23.6858C61.5479 22.7029 62.4198 21.9803 63.5812 21.5747C64.1625 21.3719 64.8017 21.1702 65.5578 20.9098C66.285 20.6493 67.011 20.4177 67.7081 20.1573C68.4052 19.9268 68.9865 19.6952 69.5098 19.5212C70.0332 19.3183 70.3528 19.2319 70.4686 19.1743C70.5844 19.1167 70.7593 19.0291 70.9631 18.9139C71.1657 18.7986 71.3695 18.6246 71.5733 18.4218C71.7771 18.1913 71.9218 17.9309 72.0666 17.6704C72.2125 17.3812 72.2704 17.0343 72.2704 16.6575V15.761C72.2704 15.4441 72.2125 15.1249 72.0666 14.778C71.9508 14.4323 71.7192 14.1419 71.3984 13.8526C71.0789 13.5646 70.6435 13.3329 70.1201 13.1589C69.5967 12.9861 68.9286 12.8985 68.1157 12.8985C66.5177 12.8985 65.4408 13.2165 64.8607 13.8815C64.3593 14.4656 64.0633 15.1968 64.0177 15.9638C64.0177 16.1366 63.8718 16.253 63.6982 16.253H60.2104C60.1259 16.2524 60.0449 16.2187 59.9851 16.1592C59.9253 16.0997 59.8915 16.0191 59.8909 15.935V15.0961C59.8909 14.2871 60.0368 13.5346 60.3563 12.8409C60.6458 12.1471 61.1403 11.511 61.8385 10.9902C62.5066 10.4693 63.3496 10.036 64.3952 9.7456C65.442 9.45751 66.6625 9.2835 68.1157 9.2835ZM12.3494 21.978C12.3229 22.1264 12.2653 22.2675 12.1803 22.3922C12.0953 22.5169 11.9848 22.6224 11.8561 22.7017C11.5944 22.8746 11.3628 22.961 11.1301 23.0474C10.6357 23.2214 10.1123 23.3954 9.56109 23.5971C9.00876 23.7999 8.48537 24.0027 7.99209 24.1468C7.40964 24.3496 6.85731 24.5236 6.36403 24.7253C5.96775 24.8971 5.59625 25.1207 5.25935 25.3902C4.96987 25.6506 4.70818 25.9687 4.47543 26.3743C4.24384 26.7788 4.12689 27.2708 4.12689 27.8781C4.12689 29.0927 4.41637 29.9893 4.99766 30.5966C5.57894 31.1751 6.65467 31.4931 8.22367 31.4931C9.82163 31.4931 10.9263 31.1751 11.5076 30.5666C12.0889 29.9305 12.3795 29.0639 12.3795 27.907V21.978H12.3506H12.3494ZM8.22483 9.2835C11.0433 9.2835 13.1067 9.83318 14.443 10.9314C15.7514 12.0307 16.4196 13.4194 16.4196 15.0684V29.2379C16.4196 29.8164 16.3038 30.4525 16.1 31.1175C15.8962 31.8123 15.4897 32.4484 14.8795 32.9981C14.2693 33.5755 13.4263 34.0387 12.3807 34.4444C11.3339 34.82 9.93974 35.0217 8.25378 35.0217C6.54003 35.0217 5.17367 34.82 4.12805 34.4444C3.08127 34.0675 2.23945 33.5755 1.62806 32.9981C1.01667 32.4185 0.610233 31.7835 0.407594 31.1163C0.203797 30.4226 0.0868453 29.7865 0.0868453 29.2379V26.9816C0.0868453 25.767 0.407594 24.6676 1.01667 23.6847C1.65585 22.7017 2.52778 21.9792 3.69151 21.5735C4.27047 21.3707 4.91081 21.169 5.66695 20.9086C6.39297 20.6482 7.119 20.4165 7.81724 20.1561C8.51432 19.9256 9.0956 19.694 9.61899 19.52C10.1412 19.3172 10.462 19.2308 10.5778 19.1731C10.6936 19.1155 10.8672 19.0279 11.0722 18.9127C11.2748 18.7975 11.4775 18.6235 11.6813 18.4206C11.8851 18.1902 12.031 17.9297 12.1757 17.6693C12.3216 17.3801 12.3795 17.0332 12.3795 16.6564V15.7598C12.3795 15.4429 12.3216 15.1237 12.1757 14.7768C12.0599 14.4311 11.8272 14.1407 11.5076 13.8515C11.188 13.5634 10.7515 13.3318 10.2292 13.1578C9.70583 12.9849 9.03655 12.8973 8.22367 12.8973C6.62572 12.8973 5.55 13.2154 4.96987 13.8803C4.46843 14.4645 4.17243 15.1957 4.12689 15.9626C4.12689 16.1355 3.98099 16.2519 3.8073 16.2519H0.319591C0.235216 16.2513 0.154451 16.2177 0.0946791 16.1585C0.0349074 16.0992 0.000908394 16.0189 0 15.935L0 15.0961C0 14.2871 0.1459 13.5346 0.465491 12.8409C0.754975 12.1471 1.24941 11.511 1.94765 10.9902C2.61578 10.4693 3.4576 10.036 4.50438 9.7456C5.52105 9.45751 6.77046 9.2835 8.22367 9.2835H8.22483ZM55.7373 9.2835H58.0613C58.2651 9.2835 58.4099 9.48631 58.352 9.68798L57.568 12.6957C57.5391 12.8409 57.3943 12.9273 57.2774 12.9273H55.6493C54.7786 12.9273 54.0803 13.0425 53.528 13.2742C53.0058 13.5058 52.5692 13.7662 52.2786 14.0843C52.0204 14.3538 51.831 14.681 51.7262 15.0384C51.6483 15.3505 51.6094 15.671 51.6104 15.9926V34.7924C51.6104 34.9652 51.4657 35.1104 51.2909 35.1104H47.8031C47.7187 35.1095 47.6379 35.0757 47.5782 35.0163C47.5184 34.9568 47.4845 34.8764 47.4836 34.7924V15.1836C47.4836 14.8356 47.5415 14.3159 47.6874 13.651C47.8031 12.9861 48.1528 12.3488 48.704 11.6839C49.2564 11.0478 50.0704 10.4693 51.1751 10.006C52.2496 9.51512 53.7897 9.2835 55.7373 9.2835ZM43.9669 28.3414V29.2091C43.9669 29.5848 43.909 30.1057 43.7631 30.7706C43.6473 31.4067 43.2988 32.0728 42.7464 32.7089C42.1941 33.345 41.3801 33.9235 40.2766 34.3856C39.1719 34.8488 37.6608 35.0805 35.7143 35.0805C33.7666 35.0805 32.2555 34.8488 31.152 34.3856C30.0473 33.9235 29.2333 33.3738 28.681 32.7089C28.1298 32.0728 27.7812 31.4067 27.6643 30.7418C27.5485 30.0769 27.4617 29.5848 27.4617 29.2091V9.60155C27.4617 9.4287 27.6064 9.2835 27.7812 9.2835H31.2388C31.3232 9.28469 31.4038 9.31858 31.4635 9.37797C31.5232 9.43736 31.5572 9.51757 31.5584 9.60155V27.9657C31.5584 28.573 31.6453 29.0063 31.7321 29.3543C31.8201 29.7 31.9938 30.0481 32.2555 30.3373C32.5172 30.6554 32.9236 30.9158 33.476 31.1175C33.9994 31.3203 34.7266 31.4367 35.6263 31.4367C36.5561 31.4367 37.3122 31.3203 37.8646 31.1175C38.4157 30.9158 38.8233 30.6554 39.114 30.3661C39.4035 30.0769 39.6084 29.7588 39.6953 29.412C39.7821 29.0651 39.8979 28.7758 39.8979 27.9369V9.60155C39.8988 9.51717 39.9329 9.4365 39.9928 9.37683C40.0528 9.31716 40.1339 9.28324 40.2187 9.28234H43.6763C43.7606 9.28354 43.8412 9.31743 43.9009 9.37682C43.9606 9.43621 43.9946 9.51642 43.9958 9.6004V28.3402H43.9669V28.3414ZM20.1968 0H23.6544C23.7387 0.00119142 23.8193 0.0350831 23.879 0.0944735C23.9387 0.153864 23.9727 0.234072 23.9739 0.318054V34.7624C23.9727 34.8464 23.9387 34.9266 23.879 34.986C23.8193 35.0454 23.7387 35.0793 23.6544 35.0805H20.1968C20.112 35.0799 20.0309 35.046 19.971 34.9862C19.9112 34.9265 19.8775 34.8456 19.8772 34.7613V0.318054C19.8772 0.145199 20.0219 0 20.1968 0Z" fill="white"/>
<path fill-rule="evenodd" clip-rule="evenodd" d="M93.688 11.9285H90.312C90.1413 11.9285 90 12.0108 90 12.1089V19.89L82.1813 19.89C82.1334 19.8912 82.0877 19.9242 82.0539 19.9822C82.02 20.0402 82.0007 20.1185 82 20.2005V23.5602C82 23.7301 82.0828 23.8708 82.1813 23.8708H90V31.6512C90.0003 31.6991 90.0332 31.7449 90.0917 31.7788C90.1501 31.8127 90.2293 31.832 90.312 31.8323H93.688C93.7704 31.8316 93.849 31.8124 93.9073 31.7787C93.9656 31.745 93.9988 31.6995 94 31.6518V23.8708H101.818C101.866 23.8705 101.912 23.8377 101.946 23.7795C101.98 23.7214 102 23.6426 102 23.5602V20.2005C101.999 20.1185 101.98 20.0402 101.946 19.9822C101.912 19.9242 101.867 19.8912 101.819 19.89L94 19.89V12.1089C93.9988 12.0613 93.9656 12.0158 93.9073 11.9821C93.849 11.9484 93.7704 11.9291 93.688 11.9285Z" fill="white"/>
</svg>
